<?xml version="1.0" encoding="UTF-8"?>
<svg width="82px" height="98px" viewBox="0 0 82 98" version="1.1" xmlns="http://www.w3.org/2000/svg" xmlns:xlink="http://www.w3.org/1999/xlink">
    <title>Group</title>
    <defs>
        <linearGradient x1="0%" y1="50%" x2="100.02679%" y2="50%" id="linearGradient-1">
            <stop stop-color="#05A1E8" offset="0%"></stop>
            <stop stop-color="#0562E8" offset="100%"></stop>
        </linearGradient>
        <linearGradient x1="18.282032%" y1="36.4501311%" x2="75.3230185%" y2="60.8178151%" id="linearGradient-2">
            <stop stop-color="#D35400" offset="0%"></stop>
            <stop stop-color="#FFB62D" offset="100%"></stop>
        </linearGradient>
    </defs>
    <g id="Page-1" stroke="none" stroke-width="1" fill="none" fill-rule="evenodd">
        <g id="Artboard-Copy-4" transform="translate(-9.000000, 0.000000)">
            <g id="Group" transform="translate(9.000000, 0.000000)">
                <path d="M1.83591024,33.3368896 C1.83591024,33.3368896 4.30404117,0 41.0450796,0 C55.4135103,0 63.5355045,5.0659347 68.9150563,11.2815984 L69.1376266,11.5412392 C74.0524998,17.7381997 76.7262647,25.4213295 76.7226181,33.3368896 C76.6403163,37.9174928 75.7151627,42.4435547 73.9936241,46.6877308 C73.3585317,48.1933359 72.514078,49.6013487 71.4853609,50.869922 C66.4086364,56.5199015 82,98 82,98 L41.5467322,98 L41.5467322,89.5752975 C41.5467322,89.5752975 34.1624055,96.6528519 29.0054165,96.6528519 C23.8484275,96.6528519 23.1461138,92.0685269 21.2197677,90.6208453 C19.2934217,89.1731637 19.0526284,90.6208453 17.2065467,89.3742306 C15.3604651,88.1276159 17.6078688,86.7402544 15.7015888,85.5137464 C13.7953089,84.2872384 12.5512104,85.5137464 11.1666491,84.1665983 C9.78208785,82.8194501 10.1031455,80.4669676 8.03633671,78.6573656 C7.31295362,78.0240049 6.14711292,77.4768517 4.92510468,76.9314225 L4.39907424,76.6975265 C2.29020686,75.7603939 0.178449966,74.7928601 0.009894683,73.3693065 C-0.271030788,70.9967173 5.52807358,68.1616742 4.92609043,60.0787854 C4.32410727,51.9958966 0.110225208,47.5724251 1.85597635,33.3368896 L1.83591024,33.3368896 Z" id="Combined-Shape" fill="url(#linearGradient-1)" fill-rule="nonzero"></path>
                <ellipse id="Oval" fill="#FFFFFF" fill-rule="nonzero" cx="37.3623704" cy="41.3999286" rx="12.2087556" ry="12.2596988"></ellipse>
                <rect id="Rectangle" fill="#FFFFFF" fill-rule="nonzero" x="30.3358725" y="50.2384503" width="14.0529959" height="9.5539112"></rect>
                <rect id="Rectangle" fill="url(#linearGradient-2)" fill-rule="nonzero" x="29.9058824" y="57.2475248" width="14.0529959" height="5.84427056"></rect>
                <polyline id="Path" stroke="#EB8919" stroke-width="1.09998" points="39.154903 57.2250364 39.154903 40.2229975 43.3087525 40.2229975 43.3087525 45.5191874 37.2876815 45.5191874 31.2723558 45.5191874 31.2723558 40.2229975 35.4262054 40.2229975 35.4262054 57.2250364"></polyline>
                <rect id="Rectangle" fill="#FFFFFF" fill-rule="nonzero" x="9.64705882" y="39.5364544" width="12.507511" height="2.32501583" rx="1.16250791"></rect>
                <path d="M17.0416378,25.3199923 L27.2550586,25.3412566 C27.89654,25.3425922 28.4162309,25.8622831 28.4175665,26.5037645 C28.4188949,27.1418036 27.9027389,27.6601134 27.2646997,27.6614418 C27.2630962,27.6614451 27.2614927,27.6614451 27.2598892,27.6614418 L17.0464684,27.6401775 C16.4049871,27.6388419 15.8852961,27.119151 15.8839605,26.4776696 C15.8826321,25.8396305 16.3987882,25.3213207 17.0368273,25.3199923 C17.0384308,25.319989 17.0400343,25.319989 17.0416378,25.3199923 Z" id="Rectangle" fill="#FFFFFF" fill-rule="nonzero" transform="translate(22.150764, 26.490717) rotate(45.000000) translate(-22.150764, -26.490717) "></path>
                <rect id="Rectangle" fill="#FFFFFF" fill-rule="nonzero" transform="translate(58.381539, 40.698962) rotate(180.000000) translate(-58.381539, -40.698962) " x="52.1277831" y="39.5364544" width="12.507511" height="2.32501583" rx="1.16250791"></rect>
                <path d="M47.0986209,25.3398241 L57.3120416,25.3185598 C57.9500807,25.3172314 58.4683905,25.8333874 58.4697189,26.4714265 C58.4697223,26.47303 58.4697223,26.4746335 58.4697189,26.4762371 C58.4683834,27.1177184 57.9486924,27.6374094 57.307211,27.638745 L47.0937903,27.6600093 C46.4557511,27.6613377 45.9374413,27.1451816 45.936113,26.5071425 C45.9361096,26.505539 45.9361096,26.5039355 45.936113,26.502332 C45.9374485,25.8608506 46.4571395,25.3411596 47.0986209,25.3398241 Z" id="Rectangle" fill="#FFFFFF" fill-rule="nonzero" transform="translate(52.202916, 26.489285) rotate(135.000000) translate(-52.202916, -26.489285) "></path>
                <path d="M33.2123312,19.671919 L41.5066643,19.671919 C42.1460318,19.671919 42.6643416,20.1902288 42.6643416,20.8295963 C42.6643416,21.4689638 42.1460318,21.9872736 41.5066643,21.9872736 L33.2123312,21.9872736 C32.5729637,21.9872736 32.0546539,21.4689638 32.0546539,20.8295963 C32.0546539,20.1902288 32.5729637,19.671919 33.2123312,19.671919 Z" id="Rectangle" fill="#FFFFFF" fill-rule="nonzero" transform="translate(37.359498, 20.829596) rotate(90.000000) translate(-37.359498, -20.829596) "></path>
                <rect id="Rectangle" fill="#FFFFFF" opacity="0.437068496" x="35.6941176" y="65.009901" width="1.92941176" height="1.94059406"></rect>
                <rect id="Rectangle-Copy" fill="#FFFFFF" opacity="0.437068496" x="35.6941176" y="68.8910891" width="1.92941176" height="1.94059406"></rect>
                <rect id="Rectangle-Copy-2" fill="#FFFFFF" opacity="0.437068496" x="35.6941176" y="72.7722772" width="1.92941176" height="1.94059406"></rect>
            </g>
        </g>
    </g>
</svg>