<?xml version="1.0" encoding="UTF-8"?><svg id="Layer_1" xmlns="http://www.w3.org/2000/svg" xmlns:xlink="http://www.w3.org/1999/xlink" viewBox="0 0 100 100"><defs><style>.cls-1{fill:url(#linear-gradient-2);}.cls-2{fill:url(#linear-gradient-17);}.cls-3{fill:url(#linear-gradient-15);}.cls-4{fill:url(#linear-gradient-18);}.cls-5{fill:url(#linear-gradient-14);}.cls-6{fill:none;stroke:#fff;stroke-linecap:round;stroke-miterlimit:10;stroke-width:1.43747px;}.cls-7{fill:url(#linear-gradient-20);}.cls-8{fill:url(#linear-gradient-6);}.cls-9{fill:url(#linear-gradient-11);}.cls-10{fill:url(#linear-gradient-10);}.cls-11{fill:url(#linear-gradient-16);}.cls-12{fill:url(#linear-gradient-21);}.cls-13{fill:url(#linear-gradient-25);}.cls-14{fill:url(#linear-gradient-5);}.cls-15{fill:url(#linear-gradient-7);}.cls-16{fill:url(#linear-gradient-24);}.cls-17{fill:url(#linear-gradient-9);}.cls-18{fill:url(#linear-gradient-22);}.cls-19{fill:url(#linear-gradient-3);}.cls-20{fill:url(#linear-gradient);}.cls-21{fill:url(#linear-gradient-27);}.cls-22{fill:url(#linear-gradient-23);}.cls-23{fill:url(#linear-gradient-19);}.cls-24{opacity:.25;}.cls-25{fill:url(#linear-gradient-4);}.cls-26{fill:url(#linear-gradient-8);}.cls-27{fill:url(#linear-gradient-12);}.cls-28{fill:url(#linear-gradient-13);}.cls-29{fill:url(#linear-gradient-26);}</style><linearGradient id="linear-gradient" x1="20.30751" y1="40.07301" x2="35.74386" y2="14.19443" gradientUnits="userSpaceOnUse"><stop offset="0" stop-color="#d35400"/><stop offset="1" stop-color="#ffb62d"/></linearGradient><linearGradient id="linear-gradient-2" x1="5.68961" y1="15.61153" x2="20.40051" y2="41.08115" xlink:href="#linear-gradient"/><linearGradient id="linear-gradient-3" x1="20.09429" y1="5.72429" x2="20.09429" y2="24.75925" xlink:href="#linear-gradient"/><linearGradient id="linear-gradient-4" x1="80.11893" x2="95.55528" y2="14.19443" xlink:href="#linear-gradient"/><linearGradient id="linear-gradient-5" x1="65.50103" y1="15.61153" x2="80.21193" y2="41.08115" xlink:href="#linear-gradient"/><linearGradient id="linear-gradient-6" x1="79.90571" y1="5.72429" x2="79.90571" y2="24.75925" xlink:href="#linear-gradient"/><linearGradient id="linear-gradient-7" x1="50.21322" y1="40.15864" x2="65.64957" y2="14.28006" gradientUnits="userSpaceOnUse"><stop offset="0" stop-color="#05a1e8"/><stop offset="1" stop-color="#0562e8"/></linearGradient><linearGradient id="linear-gradient-8" x1="35.59532" y1="15.69715" x2="50.30622" y2="41.16678" xlink:href="#linear-gradient-7"/><linearGradient id="linear-gradient-9" x1="50" y1="5.80992" x2="50" y2="24.84488" xlink:href="#linear-gradient-7"/><linearGradient id="linear-gradient-10" x1="20.30751" y1="67.17988" x2="35.74386" y2="41.3013" xlink:href="#linear-gradient-7"/><linearGradient id="linear-gradient-11" x1="5.68961" y1="42.7184" x2="20.40051" y2="68.18802" xlink:href="#linear-gradient-7"/><linearGradient id="linear-gradient-12" x1="20.09429" y1="32.83117" x2="20.09429" y2="51.86613" xlink:href="#linear-gradient-7"/><linearGradient id="linear-gradient-13" x1="80.11893" y1="67.17988" x2="95.55528" y2="41.3013" xlink:href="#linear-gradient-7"/><linearGradient id="linear-gradient-14" x1="65.50103" y1="42.7184" x2="80.21193" y2="68.18802" xlink:href="#linear-gradient-7"/><linearGradient id="linear-gradient-15" x1="79.90571" y1="32.83117" x2="79.90571" y2="51.86613" xlink:href="#linear-gradient-7"/><linearGradient id="linear-gradient-16" x1="50.21322" y1="67.26551" x2="65.64957" y2="41.38693" xlink:href="#linear-gradient"/><linearGradient id="linear-gradient-17" x1="35.59532" y1="42.80402" x2="50.30622" y2="68.27365" xlink:href="#linear-gradient"/><linearGradient id="linear-gradient-18" x1="50" y1="32.91679" x2="50" y2="51.95175" xlink:href="#linear-gradient"/><linearGradient id="linear-gradient-19" x1="20.30751" y1="93.69075" x2="35.74386" y2="67.81217" xlink:href="#linear-gradient"/><linearGradient id="linear-gradient-20" x1="5.68961" y1="69.22927" x2="20.40051" y2="94.69889" xlink:href="#linear-gradient"/><linearGradient id="linear-gradient-21" x1="20.09429" y1="59.34203" x2="20.09429" y2="78.377" xlink:href="#linear-gradient"/><linearGradient id="linear-gradient-22" x1="80.11893" y1="93.69075" x2="95.55528" y2="67.81217" xlink:href="#linear-gradient"/><linearGradient id="linear-gradient-23" x1="65.50103" y1="69.22927" x2="80.21193" y2="94.69889" xlink:href="#linear-gradient"/><linearGradient id="linear-gradient-24" x1="79.90571" y1="59.34203" x2="79.90571" y2="78.377" xlink:href="#linear-gradient"/><linearGradient id="linear-gradient-25" y1="93.77638" y2="67.8978" xlink:href="#linear-gradient-7"/><linearGradient id="linear-gradient-26" x1="35.59532" y1="69.31489" x2="50.30622" y2="94.78452" xlink:href="#linear-gradient-7"/><linearGradient id="linear-gradient-27" x1="50" y1="59.42766" x2="50" y2="78.46262" xlink:href="#linear-gradient-7"/></defs><g><polygon class="cls-20" points="35.04714 31.43108 20.85646 40.32346 20.85646 23.08409 35.04714 14.1917 35.04714 31.43108"/><polygon class="cls-24" points="35.04714 31.43108 20.85646 40.32346 20.85646 23.08409 35.04714 14.1917 35.04714 31.43108"/><polygon class="cls-1" points="5.14143 33.44892 20.85646 40.32346 20.85646 23.08409 5.14143 16.20954 5.14143 33.44892"/><polygon class="cls-19" points="5.14143 16.20132 20.85646 23.07586 35.04714 14.1917 19.33212 7.31716 5.14143 16.20132"/></g><g><polygon class="cls-25" points="94.85857 31.43108 80.66788 40.32346 80.66788 23.08409 94.85857 14.1917 94.85857 31.43108"/><polygon class="cls-24" points="94.85857 31.43108 80.66788 40.32346 80.66788 23.08409 94.85857 14.1917 94.85857 31.43108"/><polygon class="cls-14" points="64.95286 33.44892 80.66788 40.32346 80.66788 23.08409 64.95286 16.20954 64.95286 33.44892"/><polygon class="cls-8" points="64.95286 16.20132 80.66788 23.07586 94.85857 14.1917 79.14354 7.31716 64.95286 16.20132"/></g><g><polygon class="cls-15" points="64.95286 31.5167 50.76217 40.40909 50.76217 23.16971 64.95286 14.27733 64.95286 31.5167"/><polygon class="cls-24" points="64.95286 31.5167 50.76217 40.40909 50.76217 23.16971 64.95286 14.27733 64.95286 31.5167"/><polygon class="cls-26" points="35.04714 33.53455 50.76217 40.40909 50.76217 23.16971 35.04714 16.29517 35.04714 33.53455"/><polygon class="cls-17" points="35.04714 16.28694 50.76217 23.16149 64.95286 14.27733 49.23783 7.40279 35.04714 16.28694"/></g><path class="cls-6" d="M28.78451,26.90478l9.87128,3.73618c.89908,.19148,1.93469,.02556,2.46623-.39513l1.74945-1.38461"/><path class="cls-6" d="M59.14808,27.34321l9.87128,3.73618c.89908,.19148,1.93469,.02556,2.46623-.39513l1.74945-1.38461"/><g><polygon class="cls-10" points="35.04714 58.53795 20.85646 67.43033 20.85646 50.19096 35.04714 41.29857 35.04714 58.53795"/><polygon class="cls-24" points="35.04714 58.53795 20.85646 67.43033 20.85646 50.19096 35.04714 41.29857 35.04714 58.53795"/><polygon class="cls-9" points="5.14143 60.55579 20.85646 67.43033 20.85646 50.19096 5.14143 43.31641 5.14143 60.55579"/><polygon class="cls-27" points="5.14143 43.30819 20.85646 50.18273 35.04714 41.29857 19.33212 34.42403 5.14143 43.30819"/></g><g><polygon class="cls-28" points="94.85857 58.53795 80.66788 67.43033 80.66788 50.19096 94.85857 41.29857 94.85857 58.53795"/><polygon class="cls-24" points="94.85857 58.53795 80.66788 67.43033 80.66788 50.19096 94.85857 41.29857 94.85857 58.53795"/><polygon class="cls-5" points="64.95286 60.55579 80.66788 67.43033 80.66788 50.19096 64.95286 43.31641 64.95286 60.55579"/><polygon class="cls-3" points="64.95286 43.30819 80.66788 50.18273 94.85857 41.29857 79.14354 34.42403 64.95286 43.30819"/></g><g><polygon class="cls-11" points="64.95286 58.62358 50.76217 67.51596 50.76217 50.27658 64.95286 41.3842 64.95286 58.62358"/><polygon class="cls-24" points="64.95286 58.62358 50.76217 67.51596 50.76217 50.27658 64.95286 41.3842 64.95286 58.62358"/><polygon class="cls-2" points="35.04714 60.64142 50.76217 67.51596 50.76217 50.27658 35.04714 43.40204 35.04714 60.64142"/><polygon class="cls-4" points="35.04714 43.39382 50.76217 50.26836 64.95286 41.3842 49.23783 34.50966 35.04714 43.39382"/></g><path class="cls-6" d="M28.78451,54.01165l9.87128,3.73618c.89908,.19148,1.93469,.02556,2.46623-.39513l1.74945-1.38461"/><path class="cls-6" d="M59.14808,54.45008l9.87128,3.73618c.89908,.19148,1.93469,.02556,2.46623-.39513l1.74945-1.38461"/><g><polygon class="cls-23" points="35.04714 85.04882 20.85646 93.9412 20.85646 76.70183 35.04714 67.80944 35.04714 85.04882"/><polygon class="cls-24" points="35.04714 85.04882 20.85646 93.9412 20.85646 76.70183 35.04714 67.80944 35.04714 85.04882"/><polygon class="cls-7" points="5.14143 87.06666 20.85646 93.9412 20.85646 76.70183 5.14143 69.82728 5.14143 87.06666"/><polygon class="cls-12" points="5.14143 69.81906 20.85646 76.6936 35.04714 67.80944 19.33212 60.9349 5.14143 69.81906"/></g><g><polygon class="cls-18" points="94.85857 85.04882 80.66788 93.9412 80.66788 76.70183 94.85857 67.80944 94.85857 85.04882"/><polygon class="cls-24" points="94.85857 85.04882 80.66788 93.9412 80.66788 76.70183 94.85857 67.80944 94.85857 85.04882"/><polygon class="cls-22" points="64.95286 87.06666 80.66788 93.9412 80.66788 76.70183 64.95286 69.82728 64.95286 87.06666"/><polygon class="cls-16" points="64.95286 69.81906 80.66788 76.6936 94.85857 67.80944 79.14354 60.9349 64.95286 69.81906"/></g><g><polygon class="cls-13" points="64.95286 85.13445 50.76217 94.02683 50.76217 76.78745 64.95286 67.89507 64.95286 85.13445"/><polygon class="cls-24" points="64.95286 85.13445 50.76217 94.02683 50.76217 76.78745 64.95286 67.89507 64.95286 85.13445"/><polygon class="cls-29" points="35.04714 87.15229 50.76217 94.02683 50.76217 76.78745 35.04714 69.91291 35.04714 87.15229"/><polygon class="cls-21" points="35.04714 69.90468 50.76217 76.77923 64.95286 67.89507 49.23783 61.02053 35.04714 69.90468"/></g><path class="cls-6" d="M28.78451,80.52252l9.87128,3.73618c.89908,.19148,1.93469,.02556,2.46623-.39513l1.74945-1.38461"/><path class="cls-6" d="M59.14808,80.96095l9.87128,3.73618c.89908,.19148,1.93469,.02556,2.46623-.39513l1.74945-1.38461"/></svg>