<?xml version="1.0" encoding="UTF-8"?><svg id="Layer_1" xmlns="http://www.w3.org/2000/svg" xmlns:xlink="http://www.w3.org/1999/xlink" viewBox="0 0 100 100"><defs><style>.cls-1{fill:url(#linear-gradient-2);}.cls-2{fill:#fff;}.cls-3{fill:none;stroke:#fff;stroke-miterlimit:10;stroke-width:1.19423px;}.cls-4{fill:url(#linear-gradient-3);}.cls-5{fill:url(#linear-gradient);}.cls-6{opacity:.25;}</style><linearGradient id="linear-gradient" x1="33.71933" y1="65.97937" x2="98.51943" y2="65.97937" gradientUnits="userSpaceOnUse"><stop offset="0" stop-color="#d35400"/><stop offset="1" stop-color="#ffb62d"/></linearGradient><linearGradient id="linear-gradient-2" x1="1.48057" y1="43.46466" x2="82.36491" y2="43.46466" gradientUnits="userSpaceOnUse"><stop offset="0" stop-color="#05a1e8"/><stop offset="1" stop-color="#0562e8"/></linearGradient><linearGradient id="linear-gradient-3" x1="4.80366" x2="85.68799" xlink:href="#linear-gradient-2"/></defs><rect class="cls-5" x="33.71933" y="37.2401" width="64.8001" height="57.47854" rx="5.63853" ry="5.63853"/><g><rect class="cls-1" x="1.48057" y="5.28135" width="80.88434" height="76.36662" rx="2.16856" ry="2.16856"/><rect class="cls-6" x="1.48057" y="5.28135" width="80.88434" height="76.36662" rx="2.16856" ry="2.16856"/><rect class="cls-4" x="4.80366" y="5.28135" width="80.88434" height="76.36662" rx="2.16856" ry="2.16856"/><rect class="cls-3" x="7.71691" y="8.24514" width="74.88972" height="70.79242" rx="1.04234" ry="1.04234" transform="translate(90.32354 87.28269) rotate(-180)"/><line class="cls-3" x1="7.71691" y1="20.245" x2="74.35129" y2="20.245"/><circle class="cls-3" cx="14.01978" cy="14.03546" r="2.65736"/><circle class="cls-3" cx="22.54087" cy="14.03546" r="2.65736"/><circle class="cls-3" cx="31.06197" cy="14.03546" r="2.65736"/></g><path class="cls-2" d="M77.60537,61.911H41.11665c-.02538-.01268-.05076-.02536-.07613-.03807H14.76483c-.98181-2.07464-1.52902-4.39037-1.52902-6.83618,0-8.84739,7.17245-16.01983,16.01825-16.01983,1.56074,0,3.06914,.22364,4.49665,.64079,2.72654-5.25957,8.22087-8.85532,14.55425-8.85532,9.04723,0,16.38304,7.33581,16.38304,16.38305,0,.89615-.07296,1.77487-.21096,2.63137,.06979,0,.14117-.00158,.21096-.00158,6.86315,0,12.4796,5.34206,12.91737,12.09575Z"/></svg>