<?xml version="1.0" encoding="UTF-8" standalone="no"?>
<!DOCTYPE svg PUBLIC "-//W3C//DTD SVG 1.1//EN" "http://www.w3.org/Graphics/SVG/1.1/DTD/svg11.dtd">
<svg width="100%" height="100%" viewBox="0 0 90 98" version="1.1" xmlns="http://www.w3.org/2000/svg" xmlns:xlink="http://www.w3.org/1999/xlink" xml:space="preserve" xmlns:serif="http://www.serif.com/" style="fill-rule:evenodd;clip-rule:evenodd;stroke-linejoin:round;stroke-miterlimit:2;">
    <g transform="matrix(1,0,0,1,-1478.72,-1142.62)">
        <g transform="matrix(0.567426,0,0,0.501941,-132.049,1178.83)">
            <g transform="matrix(1.01567,0,0,1.01567,-45.7185,-0.395127)">
                <g transform="matrix(1.76234,0,0,1.99227,2839.95,-72.4262)">
                    <path d="M88,22.76C87,36.11 83.58,54.3 79.52,64.11C72.8,80.34 49.59,94.6 46.52,97.11L41.45,97.11C34.45,92.2 19.26,77.95 13.53,64.11C9.48,54.32 6,36.18 5.06,22.84C13.099,22.435 19.41,15.799 19.41,7.75C19.405,6.398 19.22,5.053 18.86,3.75C27.181,2.349 35.574,1.414 44,0.95C44.92,0.95 45.76,0.9 46.54,0.9C53.38,0.9 65.79,2.29 75.1,3.9L70,3.9C69.67,5.164 69.502,6.464 69.5,7.77C69.504,15.46 75.287,21.919 82.93,22.77L88,22.76Z" style="fill:rgb(6,84,178);fill-rule:nonzero;"/>
                </g>
                <g transform="matrix(1.76234,0,0,1.99227,2839.95,-72.4062)">
                    <clipPath id="_clip1">
                        <path d="M82.94,22.75C82,36.1 78.52,54.29 74.46,64.1C68.74,77.94 51,90.36 44,95.27C42.79,96.12 41.91,96.74 41.45,97.11C38.38,94.59 15.16,80.33 8.45,64.11C4.39,54.31 1,36.17 0,22.83C8.027,22.41 14.32,15.778 14.32,7.74C14.32,6.388 14.135,5.042 13.77,3.74C23,2.19 34.83,0.89 41.45,0.89C42.24,0.89 43.09,0.89 44,0.94C52.716,1.417 61.397,2.396 70,3.87C69.67,5.134 69.502,6.434 69.5,7.74C69.499,15.438 75.289,21.904 82.94,22.75Z" clip-rule="nonzero"/>
                    </clipPath>
                    <g clip-path="url(#_clip1)">
                        <g transform="matrix(1,0,0,-1,0,97.11)">
                            <rect x="0" y="0" width="82.94" height="96.22" style="fill:url(#_Linear2);"/>
                        </g>
                        <g transform="matrix(1,0,0,-1,0,97.11)">
                            <rect x="0" y="0" width="82.94" height="96.22" style="fill:url(#_Linear3);"/>
                        </g>
                    </g>
                </g>
                <g transform="matrix(1.76234,0,0,1.99227,2839.95,-75.9126)">
                    <path d="M41.45,10.2C34.855,10.388 28.277,10.963 21.75,11.92C20.878,20.081 15.66,27.132 8.11,30.35C8.82,36.35 9.9,42.68 11.17,48.35C12.195,53.322 13.617,58.204 15.42,62.95C19.89,73.75 34.29,84.48 41.42,89.56L41.42,10.2L41.45,10.2Z" style="fill:rgb(94,174,247);fill-rule:nonzero;"/>
                </g>
                <g transform="matrix(1.76234,0,0,1.99227,2839.95,-75.8927)">
                    <path d="M62.1,12.04C55.269,11.017 48.384,10.399 41.48,10.19L41.48,89.56C48.65,84.47 63,73.75 67.48,62.97C69.292,58.226 70.717,53.344 71.74,48.37C73.03,42.54 74.13,36.07 74.84,29.94C67.786,26.575 62.969,19.807 62.1,12.04Z" style="fill:rgb(76,154,255);fill-rule:nonzero;"/>
                </g>
                <g transform="matrix(1.76234,0,0,1.99227,2839.95,-72.4062)">
                    <clipPath id="_clip4">
                        <path d="M88,22.75L82.94,22.75C75.297,21.899 69.514,15.44 69.51,7.75C69.507,6.441 69.672,5.137 70,3.87L75.1,3.87C74.77,5.134 74.602,6.434 74.6,7.74C74.597,15.424 80.365,21.885 88,22.75Z" clip-rule="nonzero"/>
                    </clipPath>
                    <g clip-path="url(#_clip4)">
                        <g transform="matrix(1,0,0,-1,69.51,22.75)">
                            <rect x="-0.003" y="0" width="18.493" height="18.88" style="fill:url(#_Linear5);"/>
                        </g>
                        <g transform="matrix(1,0,0,-1,69.51,22.75)">
                            <rect x="-0.003" y="0" width="18.493" height="18.88" style="fill:url(#_Linear6);"/>
                        </g>
                    </g>
                </g>
                <g transform="matrix(1.84718,0,0,2.08817,2836.43,-96.0504)">
                    <path d="M19.84,53.616C19.857,41.668 29.552,31.995 41.5,32.006C53.448,32.017 63.125,41.708 63.12,53.656C63.114,65.603 53.428,75.286 41.48,75.286C35.734,75.291 30.222,73.009 26.162,68.943C22.101,64.877 19.827,59.362 19.84,53.616ZM35.38,60.076L47.57,60.076C48.11,55.779 48.11,51.432 47.57,47.136L35.38,47.136C34.85,51.433 34.85,55.779 35.38,60.076ZM49.86,60.076L59.5,60.076C59.81,60.076 59.9,59.936 59.98,59.686C61.27,55.735 61.27,51.476 59.98,47.526C59.958,47.381 59.879,47.251 59.761,47.165C59.642,47.078 59.495,47.043 59.35,47.066L49.86,47.066C49.95,49.266 50.11,51.406 50.11,53.546C50.11,55.686 50,57.886 49.86,60.086L49.86,60.076ZM33.18,47.146L23.46,47.146C23.11,47.146 23.04,47.316 22.96,47.576C21.686,51.514 21.7,55.756 23,59.686C23.019,59.824 23.095,59.948 23.208,60.029C23.321,60.11 23.463,60.142 23.6,60.116L33.22,60.116C32.729,55.807 32.715,51.457 33.18,47.146ZM35.7,44.916L47.24,44.916C46.815,41.94 45.853,39.067 44.4,36.436C43.977,35.767 43.454,35.167 42.85,34.656C42.075,33.906 40.845,33.906 40.07,34.656C39.597,35.037 39.183,35.485 38.84,35.986C37,38.676 36.34,41.746 35.7,44.916ZM47.23,62.286L35.76,62.286C35.756,62.346 35.756,62.406 35.76,62.466C36.13,64.832 36.802,67.141 37.76,69.336C38.233,70.573 39.002,71.675 40,72.546C40.738,73.274 41.91,73.317 42.7,72.646C43.238,72.265 43.697,71.782 44.05,71.226C44.699,70.144 45.263,69.014 45.74,67.846C46.437,66.052 46.937,64.188 47.23,62.286ZM45.8,72.576C51.496,71.298 56.31,67.517 58.9,62.286L49.8,62.286C49.51,62.286 49.42,62.406 49.39,62.666C49.32,63.116 49.23,63.566 49.13,64.016C48.585,67.058 47.454,69.965 45.8,72.576ZM45.8,34.576C46.25,35.386 46.67,36.076 47.03,36.806C48.16,39.244 48.941,41.83 49.35,44.486C49.41,44.846 49.53,44.956 49.89,44.956L58.47,44.956C58.59,44.956 58.71,44.956 58.91,44.906C56.282,39.704 51.492,35.927 45.82,34.586L45.8,34.576ZM24,44.886C24.061,44.916 24.124,44.939 24.19,44.956L33.12,44.956C33.41,44.956 33.5,44.836 33.54,44.576C33.586,44.206 33.653,43.838 33.74,43.476C34.261,40.385 35.382,37.426 37.04,34.766L37.04,34.586C31.392,35.938 26.624,39.704 24,44.886ZM24.09,62.286C25.44,66.526 32.65,72.196 37.09,72.566C36.64,71.716 36.09,70.876 35.73,69.996C34.71,67.671 33.998,65.224 33.61,62.716C33.55,62.386 33.44,62.256 33.09,62.276L31.32,62.276L24.09,62.286Z" style="fill:white;fill-rule:nonzero;"/>
                </g>
            </g>
        </g>
    </g>
    <defs>
        <linearGradient id="_Linear2" x1="0" y1="0" x2="1" y2="0" gradientUnits="userSpaceOnUse" gradientTransform="matrix(6.27019e-14,-1024,-1024,-6.27019e-14,-0.03,48.11)"><stop offset="0" style="stop-color:rgb(5,161,232);stop-opacity:0"/><stop offset="1" style="stop-color:rgb(5,98,232);stop-opacity:0"/></linearGradient>
        <linearGradient id="_Linear3" x1="0" y1="0" x2="1" y2="0" gradientUnits="userSpaceOnUse" gradientTransform="matrix(82.97,-0,0,-82.97,-0.03,48.11)"><stop offset="0" style="stop-color:rgb(5,161,232);stop-opacity:1"/><stop offset="1" style="stop-color:rgb(5,98,232);stop-opacity:1"/></linearGradient>
        <linearGradient id="_Linear5" x1="0" y1="0" x2="1" y2="0" gradientUnits="userSpaceOnUse" gradientTransform="matrix(6.27019e-14,-1024,-1024,-6.27019e-14,2.90595e-05,9.44)"><stop offset="0" style="stop-color:rgb(5,161,232);stop-opacity:0"/><stop offset="1" style="stop-color:rgb(5,98,232);stop-opacity:0"/></linearGradient>
        <linearGradient id="_Linear6" x1="0" y1="0" x2="1" y2="0" gradientUnits="userSpaceOnUse" gradientTransform="matrix(18.52,-0,0,-18.52,2.90595e-05,9.44)"><stop offset="0" style="stop-color:rgb(5,161,232);stop-opacity:1"/><stop offset="1" style="stop-color:rgb(5,98,232);stop-opacity:1"/></linearGradient>
    </defs>
</svg>
