<?xml version="1.0" encoding="UTF-8"?><svg id="Layer_1" xmlns="http://www.w3.org/2000/svg" xmlns:xlink="http://www.w3.org/1999/xlink" viewBox="0 0 100 100"><defs><style>.cls-1{opacity:.5;}.cls-2{fill:#f13624;}.cls-3{clip-path:url(#clippath);}.cls-4{fill:none;}.cls-5{fill:#00be84;}.cls-6{fill:url(#linear-gradient);}.cls-7{fill:#ffb62d;}</style><linearGradient id="linear-gradient" x1="-8.30251" y1="-22.58048" x2="74.9426" y2="-22.58048" gradientTransform="translate(54.6025 18.58997) rotate(134.99999)" gradientUnits="userSpaceOnUse"><stop offset="0" stop-color="#4279e8"/><stop offset="1" stop-color="#42c2e8"/></linearGradient><clipPath id="clippath"><circle class="cls-4" cx="49.187" cy="50.41223" r="48.66068"/></clipPath></defs><g><path class="cls-6" d="M49.187,50.25293L1.33715,40.56875c-.64515,3.18769-.97014,6.43188-.97014,9.68419,0,26.78185,22.03814,48.81998,48.81999,48.81998,26.78185,0,48.81998-22.03814,48.81998-48.81999H49.187Z"/><path class="cls-5" d="M49.187,50.25293l-.3154-48.81897c-11.20678,.0724-22.05393,4.00155-30.70732,11.12306C9.51088,19.67853,3.56812,29.56703,1.34085,40.55049l47.84615,9.70244Z"/><path class="cls-7" d="M49.187,50.25293l43.16697-22.8036C83.91208,11.46894,67.26013,1.43294,49.18699,1.43294c-.30162,0-.60324,.0028-.90481,.00839l.90482,48.8116Z"/><path class="cls-2" d="M49.187,50.25293l48.8197,.16763c.00019-.05588,.00029-.11176,.00029-.16764,0-9.08676-2.53695-17.99557-7.324-25.71913l-41.49599,25.71914Z"/></g><g class="cls-3"><rect class="cls-1" x="12.82662" y="50.42056" width="16.82609" height="49.53606"/><rect class="cls-1" x="38.65271" y="77.58696" width="16.82609" height="22.36966"/><polygon class="cls-1" points="80.39184 99.95662 63.56575 99.95662 63.61788 58.02174 80.44397 58.02174 80.39184 99.95662"/></g></svg>