<svg id="Layer_1" data-name="Layer 1" xmlns="http://www.w3.org/2000/svg" xmlns:xlink="http://www.w3.org/1999/xlink" viewBox="0 0 120 120"><defs><style>.cls-1{fill:url(#linear-gradient);}.cls-2{fill:#ecedee;isolation:isolate;}.cls-16,.cls-2{opacity:0.25;}.cls-3{fill:url(#linear-gradient-2);}.cls-10,.cls-13,.cls-15,.cls-17,.cls-4{fill:none;stroke-miterlimit:10;}.cls-10,.cls-13,.cls-4{stroke:#5d6e86;}.cls-4{stroke-width:0.41px;}.cls-5{fill:#1860d3;}.cls-6{fill:#c4cad1;}.cls-7{fill:url(#linear-gradient-3);}.cls-8{fill:#b8c5cd;}.cls-9{fill:#fff;}.cls-10{stroke-width:0.2px;}.cls-11{fill:#3db884;}.cls-12{fill:#f6921e;}.cls-13{stroke-width:0.4px;}.cls-14{fill:#979ea7;}.cls-15,.cls-17{stroke:#fff;}.cls-15{stroke-width:0.46px;}.cls-17{stroke-width:0.45px;}</style><linearGradient id="linear-gradient" x1="4.31" y1="60.58" x2="101.97" y2="60.58" gradientUnits="userSpaceOnUse"><stop offset="0" stop-color="#d35400"/><stop offset="1" stop-color="#ffb62d"/></linearGradient><linearGradient id="linear-gradient-2" x1="26.71" y1="112.41" x2="95.03" y2="112.41" gradientUnits="userSpaceOnUse"><stop offset="0" stop-color="#4279e8"/><stop offset="1" stop-color="#42c2e8"/></linearGradient><linearGradient id="linear-gradient-3" x1="108.65" y1="40.67" x2="113.27" y2="40.67" xlink:href="#linear-gradient"/></defs><path class="cls-1" d="M40.94,118H91a69,69,0,0,1-5-8.91c-2.86-6.65-12.94-19.69,3-33.48,10-8.61,15.59-24.7,11.82-38.52-6.17-22.6-24.31-37.83-48.62-33,0,0-23.29,3.76-30.31,24.48a14.49,14.49,0,0,0-.86,7c.52,3.94-10.1,11-13,12.5S3,51,5.26,54.38s4,5.91,2.35,8.31,2,5.09,2.35,6.63-3.29.56-4.2,2.18,1,2.36,1.46,4.67S5,81.48,4.82,82.63,4.18,89.44,10.39,90s17.46.47,20,3.55C32.79,96.42,37.35,111.35,40.94,118Z"/><path class="cls-2" d="M7.61,62.68c-1.67,2.4,2,5.09,2.35,6.64s-3.29.55-4.2,2.18,1,2.35,1.46,4.66a4.25,4.25,0,0,1-.29,2.26A89.15,89.15,0,0,0,36.68,71C48.67,65.54,60.5,57.48,71,49.56c9.43-7.1,16.7-16.44,24.65-25.08C87.1,9.19,71.61.21,52.17,4c0,0-23.29,3.77-30.31,24.49a14.47,14.47,0,0,0-.86,7c.52,3.93-10.1,11-13,12.49S3,51,5.26,54.38,9.28,60.29,7.61,62.68Z"/><path class="cls-3" d="M37.22,106.83H84.54A10.49,10.49,0,0,1,95,117.32V118H26.71v-.68a10.49,10.49,0,0,1,10.5-10.49Z"/><polyline class="cls-4" points="111.69 58.36 101.22 49.79 94.68 37.64 110.96 40.67 101.1 49.87 91.61 55.03 81.41 42.26 74.38 53.03 66.23 41.91"/><line class="cls-4" x1="74.38" y1="53.03" x2="91.62" y2="55.03"/><line class="cls-4" x1="94.68" y1="37.64" x2="91.62" y2="55.03"/><line class="cls-4" x1="91.62" y1="55.03" x2="74.38" y2="53.03"/><circle class="cls-5" cx="111.69" cy="58.36" r="2.31"/><circle class="cls-6" cx="101.22" cy="49.79" r="2.31"/><circle class="cls-7" cx="110.96" cy="40.67" r="2.31"/><circle class="cls-8" cx="94.68" cy="37.64" r="2.31"/><circle class="cls-8" cx="91.62" cy="55.03" r="2.31"/><circle class="cls-5" cx="81.41" cy="42.26" r="2.31"/><circle class="cls-9" cx="74.38" cy="53.03" r="2.31"/><circle class="cls-9" cx="66.23" cy="41.91" r="2.31"/><polyline class="cls-10" points="34.99 27.08 29.75 22.8 26.49 16.73 34.62 18.24 29.7 22.84 24.96 25.42 21.81 19.86 16.35 24.42 12.28 18.86"/><line class="cls-10" x1="16.35" y1="24.42" x2="24.96" y2="25.42"/><line class="cls-10" x1="26.49" y1="16.73" x2="24.96" y2="25.42"/><line class="cls-10" x1="24.96" y1="25.42" x2="16.35" y2="24.42"/><circle class="cls-5" cx="34.99" cy="27.08" r="1.15"/><circle class="cls-9" cx="29.75" cy="22.8" r="1.15"/><circle class="cls-11" cx="34.62" cy="18.24" r="1.15"/><circle class="cls-8" cx="26.49" cy="16.73" r="1.15"/><circle class="cls-9" cx="24.96" cy="25.42" r="1.15"/><circle class="cls-12" cx="21.81" cy="19.86" r="1.15"/><circle class="cls-5" cx="16.35" cy="24.42" r="1.15"/><circle class="cls-8" cx="12.28" cy="18.86" r="1.15"/><polyline class="cls-13" points="98.61 101.03 88.35 92.63 79.45 80.73 97.9 83.69 88.24 92.72 76.95 97.77 70.52 86.86 62.06 95.81 54.07 84.91"/><line class="cls-13" x1="62.06" y1="95.81" x2="52.24" y2="97.8"/><line class="cls-13" x1="62.06" y1="95.81" x2="76.95" y2="97.76"/><line class="cls-13" x1="79.45" y1="80.73" x2="76.95" y2="97.76"/><line class="cls-13" x1="76.95" y1="97.76" x2="62.06" y2="95.81"/><circle class="cls-5" cx="98.61" cy="101.03" r="2.26"/><circle class="cls-6" cx="88.35" cy="92.63" r="2.26"/><circle class="cls-12" cx="97.9" cy="83.7" r="2.26"/><circle class="cls-5" cx="79.45" cy="80.73" r="2.26"/><circle class="cls-9" cx="76.95" cy="97.76" r="2.26"/><circle class="cls-11" cx="70.52" cy="86.86" r="2.26"/><circle class="cls-11" cx="52.3" cy="98.01" r="2.26"/><circle class="cls-14" cx="62.06" cy="95.81" r="2.26"/><circle class="cls-9" cx="54.07" cy="84.91" r="2.26"/><line class="cls-13" x1="105.9" y1="94.59" x2="97.91" y2="83.69"/><circle class="cls-14" cx="105.9" cy="94.59" r="2.26"/><circle class="cls-11" cx="97.91" cy="83.69" r="2.26"/><path class="cls-9" d="M34.31,75.05A2.91,2.91,0,1,0,37.2,78v0A2.9,2.9,0,0,0,34.31,75.05Zm5.82,4.57-.5,1.25.93,1.84.12.24-1.29,1.29-2.12-1-1.26.5-.7,2-.09.26h-1.8l-.79-2.2-1.26-.5-1.83.94-.25.12L28,83l1-2.13-.5-1.26L26.55,79l-.26-.09V77.11l2.21-.79L29,75.06l-.92-1.84L27.94,73l1.29-1.29,2.13,1,1.25-.52.64-2,.09-.25h1.82L36,72.17l1.26.49L39,71.73l.24-.12,1.29,1.29-1,2.12.5,1.26,2,.64.25.08v1.83Z"/><path class="cls-9" d="M50.63,72.06a1.78,1.78,0,1,0,1.77,1.79v0A1.77,1.77,0,0,0,50.63,72.06Zm3.56,2.79-.32.78.57,1.12.08.15-.78.79-1.3-.62-.77.32-.39,1.2-.05.15H50.11l-.5-1.35-.77-.31-1.12.58-.15.08-.8-.81.61-1.3-.32-.77-1.2-.39-.15,0V73.3l1.35-.5.32-.77-.57-1.12-.07-.15.78-.79,1.3.62.77-.32.4-1.2,0-.16h1.11l.5,1.36.77.32L53.54,70l.15-.07.8.79L53.87,72l.32.78,1.2.39.16,0v1.12Z"/><path class="cls-9" d="M18.19,72.06A1.78,1.78,0,1,0,20,73.85v0A1.77,1.77,0,0,0,18.19,72.06Zm3.57,2.79-.33.78L22,76.75l.08.15-.79.79L20,77.07l-.77.32-.39,1.2,0,.15H17.66l-.5-1.35-.76-.31-1.12.58-.15.08L14.34,77l.62-1.3-.32-.77-1.2-.39-.16,0V73.32l1.35-.5.32-.77-.56-1.13-.08-.15.8-.79,1.3.62.76-.32.4-1.2.05-.16h1.11l.5,1.36.77.32L21.12,70l.15-.07.79.79L21.45,72l.32.78,1.2.39.15,0v1.12Z"/><polygon class="cls-9" points="24.1 71.09 24.01 69.17 22.39 70.2 24.1 71.09"/><polygon class="cls-9" points="49.13 80.83 50.8 81.79 50.8 79.87 49.13 80.83"/><path class="cls-15" d="M23.32,69.79a6.74,6.74,0,0,0-12,4.28"/><path class="cls-15" d="M50.72,80.81a6.74,6.74,0,1,0-4.19-12"/><path class="cls-15" d="M25.43,82.51A9.8,9.8,0,0,0,44,78.19"/><g class="cls-16"><path class="cls-9" d="M61.2,16.76a2.85,2.85,0,1,0-2.84-2.85h0A2.84,2.84,0,0,0,61.2,16.76Zm-5.71-4.48L56,11l-.92-1.8L54.94,9l1.27-1.28,2.08,1,1.24-.49.63-1.92L60.24,6H62l.78,2.17,1.24.49,1.8-.91.23-.12,1.28,1.26-1,2.08.49,1.24,1.92.63.26.08v1.79l-2.18.78-.49,1.23.92,1.81.12.23-1.27,1.27-2.09-1-1.23.49L62.2,21.5l-.08.25h-1.8l-.77-2.17-1.23-.51L56.51,20l-.24.13L55,18.84l1-2.09-.49-1.23-1.92-.63-.26-.08V13Z"/><path class="cls-9" d="M45.15,18.47a1.75,1.75,0,1,0-1.74-1.75h0a1.73,1.73,0,0,0,1.74,1.74Zm-3.5-2.75L42,15l-.54-1.11-.07-.14.78-.78,1.27.61.76-.32.38-1.17.05-.16h1.1l.49,1.33.75.31L48,13l.14-.07.78.78L48.36,15l.31.75,1.17.39.16,0v1.1l-1.33.49-.31.75.56,1.11.07.14-.78.78-1.27-.6-.76.31-.38,1.18,0,.15h-1.1l-.49-1.32-.76-.32-1.1.56-.15.08-.77-.78L42,18.5l-.31-.75-1.18-.39-.16-.05v-1.1Z"/><path class="cls-9" d="M77,18.47a1.75,1.75,0,1,0-1.74-1.75h0A1.73,1.73,0,0,0,77,18.47Zm-3.5-2.75.31-.75-.56-1.11-.07-.14.77-.78,1.28.61.76-.32.38-1.17,0-.16h1.1L78,13.23l.76.31L79.9,13l.14-.07.78.78L80.22,15l.31.75,1.17.39.16,0v1.1l-1.33.49-.31.75.56,1.11.07.14-.78.78-1.27-.6-.76.31-.38,1.18,0,.15h-1.1L76,20.24l-.76-.32-1.1.56-.15.08-.77-.79.6-1.28-.31-.75-1.18-.39-.16-.05V16.2Z"/><polygon class="cls-9" points="71.22 19.42 71.3 21.31 72.9 20.3 71.22 19.42"/><path class="cls-17" d="M72,20.7A6.61,6.61,0,0,0,83.7,16.49"/><path class="cls-17" d="M45.05,9.87a6.62,6.62,0,1,0,4.12,11.8"/></g></svg>