<?xml version="1.0" encoding="UTF-8"?>
<svg id="Layer_1" data-name="Layer 1" xmlns="http://www.w3.org/2000/svg" xmlns:xlink="http://www.w3.org/1999/xlink" viewBox="0 0 100.78 100.78">
  <defs>
    <style>
      .cls-1 {
        fill: url(#linear-gradient);
      }

      .cls-2 {
        fill: #00be84;
      }

      .cls-3 {
        fill: url(#linear-gradient-8);
      }

      .cls-4 {
        fill: url(#linear-gradient-9);
      }

      .cls-5 {
        fill: url(#linear-gradient-3);
      }

      .cls-6 {
        fill: url(#linear-gradient-4);
      }

      .cls-7 {
        fill: url(#linear-gradient-2);
      }

      .cls-8 {
        fill: url(#linear-gradient-6);
      }

      .cls-9 {
        fill: url(#linear-gradient-7);
      }

      .cls-10 {
        fill: url(#linear-gradient-5);
      }

      .cls-11 {
        fill: url(#linear-gradient-13);
      }

      .cls-11, .cls-12 {
        opacity: .5;
      }

      .cls-12 {
        fill: url(#linear-gradient-14);
      }

      .cls-13 {
        fill: url(#linear-gradient-12);
      }

      .cls-14 {
        fill: url(#linear-gradient-10);
      }

      .cls-15 {
        fill: url(#linear-gradient-11);
      }
    </style>
    <linearGradient id="linear-gradient" x1="71.22" y1="26.24" x2="95.54" y2="26.24" gradientUnits="userSpaceOnUse">
      <stop offset="0" stop-color="#4279e8"/>
      <stop offset="1" stop-color="#42d9e8"/>
    </linearGradient>
    <linearGradient id="linear-gradient-2" x1="3.91" y1="10.97" x2="28.23" y2="10.97" gradientUnits="userSpaceOnUse">
      <stop offset="0" stop-color="#d35400"/>
      <stop offset="1" stop-color="#ffb62d"/>
    </linearGradient>
    <linearGradient id="linear-gradient-3" x1="35.78" y1="26.99" x2="44.77" y2="26.99" gradientUnits="userSpaceOnUse">
      <stop offset="0" stop-color="#f8d349"/>
      <stop offset="1" stop-color="#f8ae49"/>
    </linearGradient>
    <linearGradient id="linear-gradient-4" x1="40.44" y1="42.77" x2="64.77" y2="42.77" xlink:href="#linear-gradient-2"/>
    <linearGradient id="linear-gradient-5" y1="42.77" y2="42.77" xlink:href="#linear-gradient"/>
    <linearGradient id="linear-gradient-6" x1="17.85" y1="43.52" x2="26.84" y2="43.52" xlink:href="#linear-gradient-3"/>
    <linearGradient id="linear-gradient-7" y1="43.52" x2="12.9" y2="43.52" xlink:href="#linear-gradient-2"/>
    <linearGradient id="linear-gradient-8" x1="35.78" x2="60.1" xlink:href="#linear-gradient-2"/>
    <linearGradient id="linear-gradient-9" x1="1692.12" y1="2278.33" x2="1716.44" y2="2278.33" gradientTransform="translate(-1620.9 -2267.36)" xlink:href="#linear-gradient-2"/>
    <linearGradient id="linear-gradient-10" x1="1760.82" y1="2263.07" x2="1769.81" y2="2263.07" gradientTransform="translate(1787.66 2289.31) rotate(-180)" xlink:href="#linear-gradient-3"/>
    <linearGradient id="linear-gradient-11" x1="1774.76" y1="2263.07" x2="1783.75" y2="2263.07" gradientTransform="translate(1787.66 2289.31) rotate(-180)" xlink:href="#linear-gradient-3"/>
    <linearGradient id="linear-gradient-12" x1="4.73" y1="74.04" x2="96.87" y2="74.04" gradientUnits="userSpaceOnUse">
      <stop offset="0" stop-color="#3dba85"/>
      <stop offset="1" stop-color="#1de885"/>
    </linearGradient>
    <linearGradient id="linear-gradient-13" x1="-1160.08" y1="861.83" x2="-1157.12" y2="859.3" gradientTransform="translate(-1268.64 -525.89) rotate(167.78) scale(1 -1)" gradientUnits="userSpaceOnUse">
      <stop offset="0" stop-color="#000"/>
      <stop offset="1" stop-color="#000" stop-opacity="0"/>
    </linearGradient>
    <linearGradient id="linear-gradient-14" x1="3901.97" y1="-1950.74" x2="3905.98" y2="-1954.17" gradientTransform="translate(-4302.15 -165.92) rotate(-23.36) scale(1 -1)" xlink:href="#linear-gradient-13"/>
  </defs>
  <g>
    <rect class="cls-1" x="71.22" y="22.26" width="24.32" height="7.95" rx="3.98" ry="3.98"/>
    <rect class="cls-7" x="3.91" y="7" width="24.32" height="7.95" rx="3.98" ry="3.98"/>
    <circle class="cls-2" cx="54.22" cy="26.99" r="4.5"/>
    <circle class="cls-5" cx="40.28" cy="26.99" r="4.5"/>
  </g>
  <g>
    <rect class="cls-6" x="40.44" y="38.8" width="24.32" height="7.95" rx="3.98" ry="3.98"/>
    <rect class="cls-10" x="71.22" y="38.8" width="24.32" height="7.95" rx="3.98" ry="3.98"/>
    <circle class="cls-8" cx="22.34" cy="43.52" r="4.5"/>
    <circle class="cls-9" cx="8.4" cy="43.52" r="4.5"/>
  </g>
  <rect class="cls-3" x="35.78" y="7" width="24.32" height="7.95" rx="3.98" ry="3.98"/>
  <g>
    <rect class="cls-4" x="71.22" y="7" width="24.32" height="7.95" rx="3.98" ry="3.98" transform="translate(166.76 21.95) rotate(180)"/>
    <circle class="cls-14" cx="22.34" cy="26.24" r="4.5"/>
    <circle class="cls-15" cx="8.4" cy="26.24" r="4.5"/>
  </g>
  <g>
    <path class="cls-13" d="M96.82,68.37c.02,1.14,.08,2.27,.04,3.41-.22,6.74-3,12.01-9,15.34-3.48,1.93-7.27,2.68-11.22,2.69-7.11,.02-13.65-2.04-19.74-5.62-1.68-.99-3.26-2.14-5.01-3.29-.14,.25-.26,.52-.42,.77-2.73,4.21-6.07,7.86-10.11,10.85-5.24,3.87-10.97,6.58-17.61,6.66-7.03,.08-12.5-2.84-15.86-9.13-2.75-5.14-3.69-10.69-2.87-16.46,.83-5.79,3.94-10.06,9.13-12.78,3.39-1.77,7.03-2.47,10.81-2.49,7.11-.02,13.65,2.04,19.74,5.61,1.68,.99,3.17,2.07,4.94,3.24,.2-.31,.33-.46,.49-.71,1.81-2.8,3.89-5.37,6.32-7.65,5.61-5.24,11.97-8.98,19.78-9.81,7.88-.84,14.75,2.99,18.06,10.18,.67,1.47,1.15,3.02,1.71,4.54,.27,1.54,.54,3.09,.81,4.63Zm-19.49,13.25c1.6-.04,3.25-.36,4.78-.85,3.95-1.27,6.04-4.13,6.36-8.23,.27-3.42-.3-6.74-1.73-9.87-2.14-4.7-6.39-6.54-11.82-5.26-3.09,.73-5.91,2.03-8.51,3.83-4.24,2.92-7.62,6.63-10.16,11.11-.15,.26-.27,.53-.47,.89,6.27,5.31,13.26,8.56,21.54,8.38Zm-58.72-13.95c-3.26,1.38-5.04,3.93-5.42,7.4-.41,3.64,.18,7.16,1.73,10.48,2.17,4.65,6.38,6.42,11.79,5.15,3.67-.87,6.93-2.56,9.89-4.84,3.65-2.81,6.59-6.24,8.85-10.26,.15-.26,.39-.67,.39-.67,0,0-.36-.29-.56-.46-5.71-4.8-12.17-7.71-19.7-8-.51-.02-1.02-.02-1.53,.02-.72,.05-1.44,.14-2.16,.22,0-.02-.02-.05-.02-.07-1.09,.34-2.21,.6-3.26,1.04Z"/>
    <path class="cls-11" d="M49.64,67.17l-3.79,7.76s-2.65-2.34-3.7-2.86l4-7.24s2.58,1.61,3.49,2.34Z"/>
    <path class="cls-12" d="M51.89,80.9l3.93-7.71s1.75,1.68,4.04,3.13l-3.31,7.67s-3.39-2.18-4.67-3.09Z"/>
  </g>
</svg>