<svg id="Layer_1" data-name="Layer 1" xmlns="http://www.w3.org/2000/svg" xmlns:xlink="http://www.w3.org/1999/xlink" viewBox="0 0 100 100"><defs><style>.cls-1{fill:#e1f2fc;}.cls-2{fill:url(#linear-gradient);}.cls-3{fill:#fff;}.cls-4{fill:url(#linear-gradient-2);}.cls-5{fill:url(#linear-gradient-3);}.cls-6{fill:none;stroke:#fff;stroke-miterlimit:10;stroke-width:1.4px;}</style><linearGradient id="linear-gradient" x1="1.55" y1="26.14" x2="98.45" y2="26.14" gradientUnits="userSpaceOnUse"><stop offset="0" stop-color="#d35400"/><stop offset="1" stop-color="#ffb62d"/></linearGradient><linearGradient id="linear-gradient-2" x1="80.89" y1="54.13" x2="51.86" y2="54.13" gradientUnits="userSpaceOnUse"><stop offset="0" stop-color="#4b91f7"/><stop offset="1" stop-color="#2c54e6"/></linearGradient><linearGradient id="linear-gradient-3" x1="12.7" y1="54.13" x2="86.96" y2="54.13" xlink:href="#linear-gradient-2"/></defs><rect class="cls-1" x="1.55" y="49.96" width="96.89" height="47.73"/><path class="cls-2" d="M2.36,2.31h94a2.06,2.06,0,0,1,2.06,2.06V50a0,0,0,0,1,0,0H1.55a0,0,0,0,1,0,0V3.12A.81.81,0,0,1,2.36,2.31Z"/><circle class="cls-3" cx="93.97" cy="6.94" r="1.96"/><circle class="cls-3" cx="87.6" cy="6.94" r="1.96"/><circle class="cls-3" cx="81.24" cy="6.94" r="1.96"/><polygon class="cls-4" points="47.82 91.14 51.52 75.03 42.86 61.81 28.53 56.79 13.36 53.45 8.72 37.99 20.54 21.51 45.16 16.91 66.01 19.3 80.23 32.21 82.97 46.04 80.62 60.53 71.37 70.45 60.7 74.46 55.27 91.36 47.82 91.14"/><polygon class="cls-5" points="51.81 91.14 55.51 75.03 46.84 61.81 32.51 56.79 17.34 53.45 12.7 37.99 24.52 21.51 49.15 16.91 69.99 19.3 84.22 32.21 86.96 46.04 84.6 60.53 75.36 70.45 64.69 74.46 59.25 91.36 51.81 91.14"/><polyline class="cls-6" points="29.91 23.93 53.25 30.76 48.98 19.53 53.25 30.76 67.44 21.82 67.99 37.18 79.84 33.5 67.99 37.18 69.27 45.81 81.5 45.57 69.27 45.81 69.47 57.21 80.46 59.25 69.47 57.21 73.62 68.13 69.47 57.21 57.17 44.3 69.27 45.81 67.99 37.18 57.17 44.3 67.99 37.18 53.25 30.76 57.17 44.3 40.3 42.6 41.09 27.19 40.3 42.6 20.39 39.33 40.3 42.6 23.68 51.99 40.3 42.6 57.17 44.3 49.91 61.54 43.33 49.12 34.93 54.28 43.33 49.12 49.91 61.54 69.47 57.21 58.69 73.32"/><line class="cls-6" x1="43.33" y1="49.68" x2="40.3" y2="43.17"/></svg>