<svg id="Layer_1" data-name="Layer 1" xmlns="http://www.w3.org/2000/svg" xmlns:xlink="http://www.w3.org/1999/xlink" viewBox="0 0 100 100"><defs><style>.cls-1{fill:url(#linear-gradient);}.cls-2{fill:#2e61bc;}.cls-3{fill:#3470f2;}.cls-4{fill:url(#linear-gradient-2);}.cls-5{opacity:0.25;}.cls-6{fill:url(#linear-gradient-3);}.cls-7{fill:url(#linear-gradient-4);}.cls-8{fill:url(#linear-gradient-5);}.cls-9{fill:url(#linear-gradient-6);}</style><linearGradient id="linear-gradient" x1="15.29" y1="41.62" x2="87.56" y2="41.62" gradientUnits="userSpaceOnUse"><stop offset="0" stop-color="#3dba85"/><stop offset="1" stop-color="#1de885"/></linearGradient><linearGradient id="linear-gradient-2" x1="6.65" y1="81.94" x2="49.84" y2="81.94" gradientUnits="userSpaceOnUse"><stop offset="0" stop-color="#d35400"/><stop offset="1" stop-color="#ffb62d"/></linearGradient><linearGradient id="linear-gradient-3" x1="3.95" y1="82.06" x2="47.12" y2="82.06" xlink:href="#linear-gradient-2"/><linearGradient id="linear-gradient-4" x1="51.66" y1="59.94" x2="69.06" y2="30.76" xlink:href="#linear-gradient-2"/><linearGradient id="linear-gradient-5" x1="35.18" y1="32.36" x2="51.76" y2="61.08" xlink:href="#linear-gradient-2"/><linearGradient id="linear-gradient-6" x1="51.42" y1="21.21" x2="51.42" y2="42.68" xlink:href="#linear-gradient-2"/></defs><path class="cls-1" d="M44.73,77.77c-.15-.76-.3-1.52-.44-2.28-.31-1.67-.62-3.35-.92-5-.08-.41-.15-.82-.24-1.23a.34.34,0,0,0-.19-.23,29.86,29.86,0,0,1-4.82-2,.45.45,0,0,0-.39,0l-6.86,4.7a1.52,1.52,0,0,1-.21.14l-9.49-9.48c.34-.5.7-1,1.07-1.57C23.49,59,24.73,57.2,26,55.39a.44.44,0,0,0,.05-.51,26,26,0,0,1-1.9-4.56.59.59,0,0,0-.56-.45L18.87,49c-1.11-.21-2.22-.43-3.34-.62-.21,0-.24-.13-.24-.32V35.2c0-.23.08-.3.29-.33l8.11-1.51A.45.45,0,0,0,24.1,33a27.16,27.16,0,0,1,1.95-4.66.43.43,0,0,0-.07-.51L21.28,21l-.12-.19,9.5-9.48L33.06,13c1.56,1.07,3.11,2.15,4.68,3.21a.42.42,0,0,0,.38,0,31.18,31.18,0,0,1,4.79-2,.42.42,0,0,0,.22-.25c.52-2.75,1-5.51,1.54-8.26a2.18,2.18,0,0,1,.07-.27h.31c4.26,0,8.51,0,12.77,0,.26,0,.33.1.37.32q.6,3.3,1.21,6.6c.1.53.2,1.07.32,1.6a.4.4,0,0,0,.23.26,28.12,28.12,0,0,1,4.7,2,.44.44,0,0,0,.53-.06L72,11.48c.06-.05.14-.09.27-.18.31.32.6.66.92,1q4.14,4.15,8.29,8.29c.17.18.2.29.05.5C80,23.33,78.4,25.62,76.83,27.9a.36.36,0,0,0,0,.45A28,28,0,0,1,78.74,33a.42.42,0,0,0,.38.34l7.3,1.35a8,8,0,0,0,.83.15c.26,0,.3.15.3.37,0,2.14,0,4.29,0,6.43s0,4.23,0,6.34c0,.23,0,.34-.3.39-2,.35-4,.73-5.94,1.1l-2.17.39a.47.47,0,0,0-.42.38,26.21,26.21,0,0,1-1.91,4.58.48.48,0,0,0,0,.56c1.57,2.27,3.12,4.54,4.68,6.8.13.19.14.3,0,.47q-4.56,4.55-9.09,9.09l-.19.16-1.91-1.3-5.19-3.57a.38.38,0,0,0-.45,0A26,26,0,0,1,60,69a.35.35,0,0,0-.28.32L58.53,75.6c-.14.72-.27,1.44-.41,2.17ZM24.24,41.58a27.18,27.18,0,1,0,27-27.16A27.2,27.2,0,0,0,24.24,41.58Z"/><path class="cls-2" d="M98.9,94.5s-2.66-8.76-10-8.76c-3.6,0-4.07,1.44-4.07,1.44s-2.3-8.76-12-5.41c0,0-2-20.76-24.86-16.79C31.58,67.85,36.25,85,36.25,85s-6.93-.48-10.8,3.67c0,0-11.44-3.19-15.91,5.55Z"/><path class="cls-3" d="M93.28,94.5s-3.51-6.86-10.8-6.86c-3.6,0-4.07,1.45-4.07,1.45s-2.3-8.77-12-5.41c0,0-1.69-18.7-18.37-18.7S30.65,85,30.65,85s-6.92-.48-10.8,3.67c0,0-11.45-3.19-15.9,5.55Z"/><path class="cls-4" d="M49.84,89.19S48.56,85,45,85c-1.74,0-2,.69-2,.69S41.94,81.42,37.26,83c0,0-1-10-12-8.11-7.95,1.38-5.69,9.67-5.69,9.67s-3.35-.23-5.22,1.78c0,0-5.53-1.54-7.69,2.68Z"/><path class="cls-5" d="M49.84,89.19S48.56,85,45,85c-1.74,0-2,.69-2,.69S41.94,81.42,37.26,83c0,0-1-10-12-8.11-7.95,1.38-5.69,9.67-5.69,9.67s-3.35-.23-5.22,1.78c0,0-5.53-1.54-7.69,2.68Z"/><path class="cls-6" d="M47.12,89.19s-1.69-3.31-5.22-3.31c-1.74,0-2,.7-2,.7S38.83,82.34,34.15,84c0,0-.82-9-8.88-9s-8.42,9.67-8.42,9.67-3.34-.23-5.22,1.78c0,0-5.53-1.54-7.68,2.68Z"/><polygon class="cls-7" points="68.28 50.2 52.28 60.23 52.28 40.79 68.28 30.76 68.28 50.2"/><polygon class="cls-5" points="68.28 50.2 52.28 60.23 52.28 40.79 68.28 30.76 68.28 50.2"/><polygon class="cls-8" points="34.56 52.47 52.28 60.23 52.28 40.79 34.56 33.04 34.56 52.47"/><polygon class="cls-9" points="34.56 33.03 52.28 40.78 68.28 30.76 50.56 23.01 34.56 33.03"/></svg>