<?xml version="1.0" encoding="UTF-8"?><svg id="Layer_1" xmlns="http://www.w3.org/2000/svg" xmlns:xlink="http://www.w3.org/1999/xlink" viewBox="0 0 100 100"><defs><style>.cls-1{fill:url(#linear-gradient-2);}.cls-2{fill:url(#linear-gradient-3);}.cls-3{fill:url(#linear-gradient);}.cls-4{fill:#fefefe;}</style><linearGradient id="linear-gradient" x1="27.82292" y1="103.86688" x2="116.13984" y2="15.54997" gradientUnits="userSpaceOnUse"><stop offset="0" stop-color="#d35400"/><stop offset="1" stop-color="#ffb62d"/></linearGradient><linearGradient id="linear-gradient-2" x1="61.69313" y1="15.76737" x2="-64.12308" y2="111.79852" xlink:href="#linear-gradient"/><linearGradient id="linear-gradient-3" x1="6.62239" y1="62.11314" x2="48.59191" y2="62.11314" xlink:href="#linear-gradient"/></defs><g><polygon class="cls-3" points="90.56143 25.76708 90.56143 74.23284 48.59191 98.4592 48.59191 49.99343 90.56143 25.76708"/><polygon class="cls-1" points="90.56143 25.76708 48.59191 49.99343 6.62239 25.76708 48.59191 1.5408 90.56143 25.76708"/><polygon class="cls-2" points="48.59191 49.99343 48.59191 98.4592 6.62239 74.23284 6.62239 25.76708 48.59191 49.99343"/></g><path class="cls-4" d="M82.77262,55.70778c-.51536-.50558-1.17726-.67088-1.85056-.74577-1.33196-.14733-2.67856-.16935-3.9983-.42496-.69203-.13433-1.45895-.14737-1.88882-.86301-.13677-.22632-.32077-.35985-.5805-.38835-.35333-.03908-.41357-.23693-.37042-.56339,.28821-2.16402,.26134-4.33129-.03826-6.48879-.53083-3.81184-1.83591-7.34361-3.94863-10.56602-.1547-.2361-.08141-.33707,.08141-.49827,.18318-.18235,.47301-.28984,.46895-.62282-.00489-.4551,.21574-.7938,.55768-1.07875,1.02502-.85486,2.15424-1.55177,3.31848-2.19331,.57235-.31592,1.12435-.65541,1.60795-1.09584,.94442-.86058,1.01769-2.23486,.16609-3.02865-.6961-.64806-1.78056-.6741-2.66471-.05864-.53735,.37452-.98918,.84023-1.42721,1.32546-.87277,.9672-1.78217,1.89858-2.81534,2.69973-.29064,.22632-.60491,.37289-.97453,.32729-.36311-.0456-.67167,.05045-.92486,.30284-.23041,.22878-.3843,.15957-.59596-.05212-4.37443-4.37359-9.62488-6.93816-15.78799-7.59763-.23123-.02524-.33381-.09932-.33299-.34683,0-.24911,.04966-.52675-.18889-.71725-.42254-.33788-.52023-.80113-.52023-1.30916-.00081-1.10155,.13026-2.19168,.29065-3.27695,.12945-.87195,.31019-1.73577,.19866-2.62482-.1262-1.01445-.93872-1.81311-1.90105-1.8579-.91347-.04315-1.77241,.67004-1.99059,1.65599-.10666,.48197-.10258,.97046-.035,1.45569,.1905,1.36859,.44534,2.72903,.46325,3.98037,.06106,1.1154-.00244,1.44106-.4372,1.92711-.16771,.18807-.26623,.3737-.2304,.61469,.0578,.38591-.14085,.47056-.47955,.50069-2.72251,.24343-5.32698,.95174-7.82234,2.05736-2.99608,1.32868-5.64043,3.17113-7.91599,5.53216-.21901,.22795-.36637,.23852-.60003,.0456-.15713-.12864-.30531-.30777-.56909-.24834-.51861,.1156-.94604-.08141-1.34824-.40298-.97861-.78159-1.8587-1.66416-2.6932-2.59391-.46326-.51616-.93789-1.01848-1.51921-1.40357-.8402-.5577-1.9051-.52351-2.56945,.07327-.90452,.81252-.81659,2.24217,.18969,3.11007,.47466,.4095,.99896,.74247,1.54851,1.04289,1.14225,.62528,2.24299,1.31568,3.25823,2.13798,.32159,.2605,.54303,.56907,.59026,.98187,.03419,.30205,.16446,.54057,.41603,.70423,.26053,.16851,.25483,.32645,.08792,.58942-2.97328,4.68383-4.34918,9.79015-4.03574,15.34104,.03338,.59594,.09037,1.18867,.1612,1.78056,.01629,.13679,.12619,.36068-.12863,.39813-.5121,.0749-.83206,.39893-1.12679,.78155-.16446,.21252-.4144,.2931-.66841,.35826-1.10643,.28332-2.2381,.40461-3.3722,.49175-.90453,.07001-1.81963,.06838-2.68018,.40707-.94278,.37042-1.51595,1.32053-1.35638,2.21609,.1669,.92975,1.02909,1.60063,2.07527,1.59411,.73192-.00405,1.41093-.24424,2.07527-.52188,1.20087-.50232,2.42373-.93627,3.69055-1.244,.42906-.10423,.85893-.16855,1.25867,.07732,.29391,.18076,.58618,.25323,.92162,.13922,.23936-.08141,.37368-.00974,.46732,.26134,2.03048,5.87329,5.70311,10.43662,10.98287,13.70705,.24262,.14979,.28169,.28738,.15063,.51616-.17342,.30451-.23367,.60735-.08386,.95826,.15143,.35659,.04722,.71075-.11723,1.05597-.60085,1.26599-1.34742,2.44245-2.16076,3.579-.38021,.53246-.71564,1.09095-.90778,1.71782-.46081,1.50296,.63748,2.86177,2.11597,2.61589,.70017-.11644,1.20169-.53492,1.54688-1.14553,.34275-.60572,.53245-1.26841,.74495-1.92709,.39811-1.23422,.74494-2.49131,1.37754-3.63843,.15957-.28821,.3395-.5862,.67412-.67004,.38102-.09688,.60572-.31998,.7425-.66599,.08955-.22795,.21575-.28495,.47058-.1905,1.75693,.65215,3.56516,1.10725,5.42468,1.35802,2.10702,.28412,4.21486,.30121,6.32757,.06595,2.01502-.22473,3.97387-.68551,5.8741-1.38731,.22469-.08304,.33297-.05049,.44289,.16363,.11153,.21821,.16609,.49175,.4779,.56259,.47221,.10666,.76124,.42985,.96885,.85486,.59676,1.22122,1.02989,2.50188,1.40604,3.80452,.20028,.69282,.43474,1.37348,.87114,1.95638,.5699,.76124,1.54118,1.05597,2.34881,.73683,.82393-.32649,1.29614-1.16911,1.17076-2.15098-.10992-.86464-.60491-1.55424-1.08934-2.24217-.77344-1.09831-1.49966-2.22428-2.06062-3.44956-.14898-.32566-.26702-.66925-.10745-1.01932,.13596-.29716,.12457-.56748-.03908-.84019-.17016-.28253-.06921-.42337,.2068-.58946,1.60795-.96967,3.08317-2.11842,4.42652-3.43084,2.98224-2.91222,5.1495-6.34059,6.47412-10.2949,.09364-.27927,.18807-.41033,.51047-.30777,.20435,.06432,.44045,.13516,.65702-.04476,.37776-.31425,.82065-.31835,1.27414-.21984,1.3409,.2931,2.62645,.75881,3.88675,1.29127,.57805,.24424,1.17402,.41681,1.79113,.51206,.86382,.13274,1.80578-.35412,2.17622-1.11294,.36474-.74736,.18563-1.59002-.46162-2.22587Zm-31.01097-26.27668c4.14321,.66352,7.73767,2.44408,10.81761,5.28792,.2703,.24993,.24017,.34681-.04397,.54629-2.60365,1.83021-5.19509,3.67751-7.79385,5.51423-.38754,.27354-.79135,.5121-1.29856,.50964-.94849-.00405-1.69099-.66026-1.75368-1.612-.11723-1.78461-.219-3.57005-.32159-5.35466-.08304-1.44758-.15795-2.89429-.23692-4.34187-.03257-.65863-.03257-.65621,.63097-.54955Zm-4.94108,17.16473c.1319-.16935,.27519-.22795,.4828-.22147,.43312,.01304,.86707,.00409,1.30101,.00409,.14899,0,.30206,.02198,.44698-.00409,.82798-.15063,1.40359,.15794,1.84078,.87684,.30124,.49338,.70832,.92327,1.07875,1.37269,.11236,.13675,.15957,.25971,.11561,.44043-.2076,.85406-.41032,1.70971-.59595,2.56867-.04234,.19618-.13109,.30284-.30612,.38509-.78404,.368-1.56479,.7441-2.3415,1.12677-.17423,.08547-.31509,.08956-.49256,.00083-.77589-.38513-1.55584-.76124-2.3415-1.12518-.19295-.08956-.29065-.21169-.33543-.41276-.18237-.81904-.37125-1.63565-.56503-2.45139-.05454-.22715-.02279-.40707,.13435-.59598,.53733-.6448,1.06164-1.3018,1.57781-1.96453Zm-12.30587-11.85729c2.79579-2.62074,6.07356-4.31988,9.81864-5.1202,.42336-.09036,.85079-.16363,1.27822-.23284,.48197-.07816,.49174-.06432,.45999,.40302-.18237,3.20774-.36474,6.41548-.54792,9.62323-.06106,1.06738-.61795,1.75778-1.54525,1.9084-.49907,.08141-.94442-.08388-1.33927-.36315-2.72334-1.9222-5.43689-3.85743-8.16348-5.77637-.30612-.21574-.10177-.3102,.03908-.4421Zm-6.28361,16.72998c-.39568-4.4469,.53652-8.59012,2.82348-12.42556,.02035-.03419,.05291-.06106,.09851-.11155,.7995,.71238,1.59818,1.42234,2.3936,2.13472,1.6975,1.51918,3.39663,3.03676,5.08924,4.5625,.38429,.34681,.72624,.7311,.79218,1.28308,.1148,.9713-.37125,1.69509-1.44187,2.00934-3.14261,.92486-6.29337,1.82289-9.44006,2.73472-.18644,.05375-.29228,.06758-.31508-.18724Zm13.31216,5.53296c-.33135,1.23343-.91429,2.37161-1.39219,3.54887-.80438,1.98246-1.63888,3.95189-2.44245,5.93435-.12375,.30694-.21819,.31751-.4771,.14085-3.579-2.43756-6.16718-5.66081-7.72872-9.70142-.0521-.13353-.22634-.31183,.11723-.36879,3.25823-.54061,6.51483-1.09505,9.77224-1.64297,.16039-.02687,.3224-.03828,.41604-.04886,1.18784,0,2.0256,1.05351,1.73495,2.13798Zm13.31704,12.12189c-1.45325,.45589-2.93745,.75468-4.4534,.88416-.60735,.05212-1.21634,.11477-1.61365,.09036-2.32846-.02198-4.39478-.33786-6.41143-.9794-.25237-.07979-.311-.14737-.16852-.40302,1.59492-2.86419,3.16704-5.74139,4.76685-8.60311,.80683-1.44432,2.42779-1.44349,3.25822,.02441,1.62017,2.86499,3.19147,5.75768,4.79209,8.63408,.13514,.24178,.03174,.28901-.17016,.35253Zm12.82449-12.06409c-1.56968,4.00559-4.13996,7.20686-7.70429,9.61591-.24669,.16609-.33788,.15389-.4543-.13027-1.24402-3.03024-2.50514-6.05321-3.75161-9.08266-.48279-1.17316-.06756-2.20226,.99652-2.55642,.21332-.0708,.42661-.06186,.64725-.09604,1.12109,.18561,2.24299,.368,3.36326,.55687,2.18926,.36879,4.37687,.74331,6.56532,1.11051,.53001,.08873,.53409,.08058,.33786,.58211Zm1.35476-6.30072q-.03908,.95094-.95176,.6904c-2.93744-.84428-5.8749-1.68853-8.81154-2.53607-.94114-.27191-1.49069-.84182-1.55746-1.61773-.04478-.51047,.09851-.97126,.46162-1.33925,.93383-.94605,1.96129-1.79033,2.94479-2.68264,1.54525-1.40198,3.1076-2.78604,4.66343-4.17741,.05943-.05291,.1262-.09851,.20843-.162,.64154,.99407,1.14877,2.03859,1.57944,3.11981,1.11296,2.79578,1.58596,5.70068,1.46304,8.70488Z"/></svg>