<?xml version="1.0" encoding="UTF-8" standalone="no"?>
<!DOCTYPE svg PUBLIC "-//W3C//DTD SVG 1.1//EN" "http://www.w3.org/Graphics/SVG/1.1/DTD/svg11.dtd">
<svg width="100%" height="100%" viewBox="0 0 40 40" version="1.1" xmlns="http://www.w3.org/2000/svg" xmlns:xlink="http://www.w3.org/1999/xlink" xml:space="preserve" xmlns:serif="http://www.serif.com/" style="fill-rule:evenodd;clip-rule:evenodd;stroke-miterlimit:10;">
    <g transform="matrix(0.24,0,0,0.24,-4464.56,-4408.25)">
        <g transform="matrix(4.16667,0,0,4.16667,18609.9,18375.3)">
            <g transform="matrix(-0.26087,0,0,-0.26087,9.91457,35.7474)">
                <circle cx="18.54" cy="18.54" r="17.91" style="fill:rgb(0,190,132);"/>
            </g>
            <g transform="matrix(-0.26087,0,0,-0.26087,35.4015,35.3978)">
                <circle cx="66.72" cy="66.72" r="66.72" style="fill:none;stroke:rgb(57,69,89);stroke-width:1.84px;"/>
            </g>
            <g transform="matrix(-0.26087,0,0,-0.26087,35.7511,35.7474)">
                <circle cx="68.06" cy="68.06" r="58.4" style="fill:rgb(226,236,246);"/>
            </g>
            <g transform="matrix(-0.26087,0,0,-0.26087,61.2172,35.7474)">
                <circle cx="116.87" cy="116.87" r="17.91" style="fill:url(#_Linear1);"/>
            </g>
            <g transform="matrix(0.26087,0,0,0.26087,0.241515,0.248225)">
                <path d="M108.6,60.7C108.6,60.34 108.52,60.24 108.15,60.25L100.72,60.25C100.44,60.25 100.32,60.19 100.24,59.9C99.469,56.766 98.232,53.766 96.57,51C96.492,50.91 96.456,50.79 96.472,50.672C96.487,50.554 96.552,50.448 96.65,50.38C98.42,48.63 100.17,46.86 101.95,45.11C102.18,44.88 102.16,44.77 101.95,44.55C98.483,41.09 95.017,37.623 91.55,34.15C91.33,33.92 91.21,33.88 90.96,34.15C89.22,35.91 87.46,37.65 85.72,39.42C85.643,39.527 85.524,39.597 85.393,39.612C85.261,39.628 85.13,39.587 85.03,39.5C82.288,37.851 79.315,36.621 76.21,35.85C76.09,35.841 75.98,35.781 75.908,35.685C75.835,35.59 75.807,35.468 75.83,35.35L75.83,27.96C75.83,27.61 75.77,27.48 75.37,27.48L60.75,27.48C60.4,27.48 60.29,27.55 60.29,27.93L60.29,35.36C60.29,35.63 60.23,35.76 59.94,35.83C56.807,36.609 53.808,37.849 51.04,39.51C50.95,39.588 50.83,39.624 50.712,39.608C50.594,39.593 50.488,39.528 50.42,39.43C48.67,37.66 46.9,35.91 45.15,34.14C44.92,33.9 44.81,33.92 44.59,34.14L34.19,44.54C33.91,44.81 33.97,44.92 34.19,45.16C35.96,46.9 37.7,48.66 39.46,50.41C39.558,50.476 39.622,50.58 39.638,50.697C39.653,50.814 39.617,50.931 39.54,51.02C37.881,53.775 36.641,56.761 35.86,59.88C35.79,60.18 35.67,60.26 35.37,60.26L28,60.26C27.64,60.26 27.51,60.32 27.519,60.72L27.519,75.34C27.519,75.69 27.59,75.8 27.96,75.8L35.4,75.8C35.67,75.8 35.8,75.86 35.87,76.15C36.651,79.282 37.891,82.281 39.55,85.05C39.628,85.14 39.664,85.26 39.648,85.378C39.633,85.496 39.568,85.602 39.47,85.67C37.69,87.43 35.93,89.21 34.15,90.97C33.94,91.17 33.95,91.27 34.15,91.47C37.65,94.963 41.143,98.46 44.63,101.96C44.85,102.17 44.95,102.14 45.14,101.96C46.9,100.19 48.68,98.42 50.44,96.64C50.508,96.542 50.614,96.477 50.732,96.462C50.85,96.446 50.97,96.482 51.06,96.56C53.816,98.217 56.801,99.457 59.92,100.24C60.21,100.31 60.3,100.42 60.3,100.72L60.3,108.16C60.3,108.53 60.41,108.6 60.76,108.6L75.38,108.6C75.73,108.6 75.84,108.52 75.83,108.16L75.83,100.72C75.83,100.45 75.89,100.32 76.18,100.25C79.311,99.468 82.31,98.227 85.08,96.57C85.169,96.493 85.286,96.457 85.403,96.472C85.52,96.488 85.624,96.552 85.69,96.65C87.45,98.42 89.22,100.17 90.97,101.95C91.2,102.18 91.31,102.16 91.53,101.95C94.997,98.47 98.473,94.997 101.96,91.53C102.2,91.28 102.15,91.17 101.96,90.96C100.19,89.21 98.44,87.44 96.67,85.69C96.572,85.622 96.507,85.516 96.492,85.398C96.476,85.28 96.512,85.16 96.59,85.07C98.246,82.315 99.483,79.329 100.26,76.21C100.34,75.91 100.45,75.82 100.75,75.83L108.15,75.83C108.5,75.83 108.63,75.77 108.63,75.37C108.603,70.47 108.593,65.58 108.6,60.7ZM68.06,93.08C54.253,93.08 43.06,81.887 43.06,68.08C43.06,54.273 54.253,43.08 68.06,43.08C81.867,43.08 93.06,54.273 93.06,68.08C93.06,81.887 81.867,93.08 68.06,93.08Z" style="fill:url(#_Linear2);fill-rule:nonzero;"/>
            </g>
        </g>
    </g>
    <defs>
        <linearGradient id="_Linear1" x1="0" y1="0" x2="1" y2="0" gradientUnits="userSpaceOnUse" gradientTransform="matrix(34.6751,0,0,-102.364,98.7385,116.87)"><stop offset="0" style="stop-color:rgb(5,161,232);stop-opacity:1"/><stop offset="1" style="stop-color:rgb(5,98,232);stop-opacity:1"/></linearGradient>
        <linearGradient id="_Linear2" x1="0" y1="0" x2="1" y2="0" gradientUnits="userSpaceOnUse" gradientTransform="matrix(81.1784,0,0,-81.162,27.4247,68.1133)"><stop offset="0" style="stop-color:rgb(211,84,0);stop-opacity:1"/><stop offset="1" style="stop-color:rgb(255,182,45);stop-opacity:1"/></linearGradient>
    </defs>
</svg>
