<svg id="Layer_1" data-name="Layer 1" xmlns="http://www.w3.org/2000/svg" xmlns:xlink="http://www.w3.org/1999/xlink" viewBox="0 0 100 100"><defs><style>.cls-1,.cls-26{fill:none;}.cls-2{opacity:0.15;fill:url(#linear-gradient);}.cls-3{clip-path:url(#clip-path);}.cls-4{fill:url(#linear-gradient-2);}.cls-5{fill:url(#linear-gradient-3);}.cls-6{fill:url(#linear-gradient-4);}.cls-7{fill:url(#linear-gradient-5);}.cls-8{fill:url(#linear-gradient-6);}.cls-9{fill:url(#linear-gradient-7);}.cls-10{fill:url(#linear-gradient-8);}.cls-11{fill:url(#linear-gradient-9);}.cls-12{fill:url(#linear-gradient-10);}.cls-13{fill:url(#linear-gradient-11);}.cls-14{fill:url(#linear-gradient-12);}.cls-15{fill:url(#linear-gradient-13);}.cls-16{fill:url(#linear-gradient-14);}.cls-17{fill:url(#linear-gradient-15);}.cls-18{fill:url(#linear-gradient-16);}.cls-19{fill:url(#linear-gradient-17);}.cls-20{fill:url(#linear-gradient-18);}.cls-21{fill:url(#linear-gradient-19);}.cls-22{fill:url(#linear-gradient-20);}.cls-23{fill:url(#linear-gradient-21);}.cls-24{fill:url(#linear-gradient-22);}.cls-25{fill:url(#linear-gradient-23);}.cls-26{stroke:#fff;stroke-miterlimit:10;}</style><linearGradient id="linear-gradient" x1="0.63" y1="50" x2="99.37" y2="50" gradientUnits="userSpaceOnUse"><stop offset="0" stop-color="#05a1e8"/><stop offset="1" stop-color="#0562e8"/></linearGradient><clipPath id="clip-path"><circle class="cls-1" cx="50" cy="50" r="49.37"/></clipPath><linearGradient id="linear-gradient-2" x1="27.72" y1="64.89" x2="72.42" y2="109.58" gradientUnits="userSpaceOnUse"><stop offset="0" stop-color="#d35400"/><stop offset="1" stop-color="#ffb62d"/></linearGradient><linearGradient id="linear-gradient-3" x1="123.94" y1="85.61" x2="62.59" y2="55.31" xlink:href="#linear-gradient-2"/><linearGradient id="linear-gradient-4" x1="43.46" y1="63.1" x2="63.67" y2="83.3" xlink:href="#linear-gradient-2"/><linearGradient id="linear-gradient-5" x1="49.62" y1="63.1" x2="69.83" y2="83.3" xlink:href="#linear-gradient-2"/><linearGradient id="linear-gradient-6" x1="55.78" y1="63.1" x2="75.99" y2="83.3" xlink:href="#linear-gradient-2"/><linearGradient id="linear-gradient-7" x1="61.94" y1="63.1" x2="82.15" y2="83.3" xlink:href="#linear-gradient-2"/><linearGradient id="linear-gradient-8" x1="68.1" y1="63.1" x2="88.31" y2="83.3" xlink:href="#linear-gradient-2"/><linearGradient id="linear-gradient-9" x1="74.26" y1="63.1" x2="94.47" y2="83.3" xlink:href="#linear-gradient-2"/><linearGradient id="linear-gradient-10" x1="80.42" y1="63.1" x2="100.63" y2="83.3" xlink:href="#linear-gradient-2"/><linearGradient id="linear-gradient-11" x1="86.58" y1="63.1" x2="106.79" y2="83.3" xlink:href="#linear-gradient-2"/><linearGradient id="linear-gradient-12" x1="92.74" y1="63.1" x2="112.95" y2="83.3" xlink:href="#linear-gradient-2"/><linearGradient id="linear-gradient-13" x1="98.9" y1="63.1" x2="119.11" y2="83.3" xlink:href="#linear-gradient-2"/><linearGradient id="linear-gradient-14" x1="48.32" y1="98.82" x2="93.02" y2="143.52" xlink:href="#linear-gradient-2"/><linearGradient id="linear-gradient-15" x1="144.54" y1="119.55" x2="83.19" y2="89.25" xlink:href="#linear-gradient-2"/><linearGradient id="linear-gradient-16" x1="64.06" y1="97.03" x2="84.27" y2="117.24" xlink:href="#linear-gradient-2"/><linearGradient id="linear-gradient-17" x1="70.22" y1="97.03" x2="90.43" y2="117.24" xlink:href="#linear-gradient-2"/><linearGradient id="linear-gradient-18" x1="76.38" y1="97.03" x2="96.59" y2="117.24" xlink:href="#linear-gradient-2"/><linearGradient id="linear-gradient-19" x1="82.54" y1="97.03" x2="102.75" y2="117.24" xlink:href="#linear-gradient-2"/><linearGradient id="linear-gradient-20" x1="88.7" y1="97.03" x2="108.91" y2="117.24" xlink:href="#linear-gradient-2"/><linearGradient id="linear-gradient-21" x1="94.86" y1="97.03" x2="115.06" y2="117.24" xlink:href="#linear-gradient-2"/><linearGradient id="linear-gradient-22" x1="101.02" y1="97.03" x2="121.22" y2="117.24" xlink:href="#linear-gradient-2"/><linearGradient id="linear-gradient-23" x1="10.54" y1="25.83" x2="90.72" y2="25.83" xlink:href="#linear-gradient"/></defs><circle class="cls-2" cx="50" cy="50" r="49.37"/><g class="cls-3"><rect class="cls-4" x="10.5" y="45.39" width="27.72" height="32.27"/><rect class="cls-5" x="38.22" y="45.39" width="73.92" height="32.27"/><rect class="cls-6" x="41.38" y="48.57" width="1.11" height="26.01"/><rect class="cls-7" x="47.54" y="48.57" width="1.11" height="26.01"/><rect class="cls-8" x="53.7" y="48.57" width="1.11" height="26.01"/><rect class="cls-9" x="59.86" y="48.57" width="1.11" height="26.01"/><rect class="cls-10" x="66.02" y="48.57" width="1.11" height="26.01"/><rect class="cls-11" x="72.18" y="48.57" width="1.11" height="26.01"/><rect class="cls-12" x="78.34" y="48.57" width="1.11" height="26.01"/><rect class="cls-13" x="84.5" y="48.57" width="1.11" height="26.01"/><rect class="cls-14" x="90.66" y="48.57" width="1.11" height="26.01"/><rect class="cls-15" x="96.82" y="48.57" width="1.11" height="26.01"/><rect class="cls-16" x="31.1" y="79.33" width="27.72" height="32.27"/><rect class="cls-17" x="58.82" y="79.33" width="73.92" height="32.27"/><rect class="cls-18" x="61.98" y="82.51" width="1.11" height="26.01"/><rect class="cls-19" x="68.14" y="82.51" width="1.11" height="26.01"/><rect class="cls-20" x="74.3" y="82.51" width="1.11" height="26.01"/><rect class="cls-21" x="80.46" y="82.51" width="1.11" height="26.01"/><rect class="cls-22" x="86.62" y="82.51" width="1.11" height="26.01"/><rect class="cls-23" x="92.78" y="82.51" width="1.11" height="26.01"/><rect class="cls-24" x="98.94" y="82.51" width="1.11" height="26.01"/></g><path class="cls-25" d="M90.72,36.56a20,20,0,0,1-2,8.81H10.54A20.07,20.07,0,0,1,27.36,29.26a20,20,0,0,1,37.73-12A20.06,20.06,0,0,1,90.72,36.56Z"/><line class="cls-26" x1="45.51" y1="26.78" x2="79.15" y2="26.78"/><line class="cls-26" x1="45.51" y1="30.49" x2="67.45" y2="30.49"/><line class="cls-26" x1="71.36" y1="30.49" x2="79.15" y2="30.49"/><line class="cls-26" x1="45.51" y1="34.21" x2="79.15" y2="34.21"/><line class="cls-26" x1="45.51" y1="37.93" x2="67.45" y2="37.93"/><line class="cls-26" x1="71.36" y1="37.93" x2="79.15" y2="37.93"/></svg>