<svg id="Layer_1" data-name="Layer 1" xmlns="http://www.w3.org/2000/svg" xmlns:xlink="http://www.w3.org/1999/xlink" viewBox="0 0 100 100"><defs><style>.cls-1{fill:url(#linear-gradient);}.cls-2{fill:url(#linear-gradient-2);}.cls-3{fill:#8d5752;}.cls-4{fill:#ffaba7;}.cls-5{fill:url(#linear-gradient-3);}.cls-6{fill:url(#linear-gradient-4);}</style><linearGradient id="linear-gradient" x1="49.83" y1="33.14" x2="16.17" y2="20.42" gradientUnits="userSpaceOnUse"><stop offset="0" stop-color="#05a1e8"/><stop offset="1" stop-color="#0562e8"/></linearGradient><linearGradient id="linear-gradient-2" x1="45.22" y1="63.14" x2="89.24" y2="88.58" gradientUnits="userSpaceOnUse"><stop offset="0" stop-color="#d35400"/><stop offset="1" stop-color="#ffb62d"/></linearGradient><linearGradient id="linear-gradient-3" x1="50.16" y1="32.24" x2="16.51" y2="19.53" xlink:href="#linear-gradient"/><linearGradient id="linear-gradient-4" x1="47.47" y1="59.25" x2="91.49" y2="84.69" xlink:href="#linear-gradient-2"/></defs><path class="cls-1" d="M50.58,5.07c3.17.72,6.4,1.26,9.51,2.21,3.34,1,4.74,3.9,3.67,6.73s-3.75,3.81-7,2.71c-10.57-3.54-20.93,2-23.59,12.49a17.79,17.79,0,0,0,9.47,20.13A12.58,12.58,0,0,1,45,50.66a5,5,0,0,1,1.07,6.42,4.93,4.93,0,0,1-6.38,2C30.09,54.8,24.48,47.42,22.83,37c-.11-.68-.08-1.38-.21-2.05-.33-1.71.18-2.65,1.89-3.5a12.19,12.19,0,0,0,6.06-15.14,2.75,2.75,0,0,1,.94-3.5A30.8,30.8,0,0,1,50.58,5.07Z"/><path class="cls-2" d="M51,94.93c-3.18-.7-6.42-1.22-9.52-2.16-3.39-1-4.84-3.84-3.83-6.67s3.77-3.92,7.17-2.77c8.92,3,18.09-.62,22.13-8.78A17.82,17.82,0,0,0,58.75,50.6a10.25,10.25,0,0,1-2.84-1.83,4.92,4.92,0,0,1-.35-6.13A5,5,0,0,1,61.87,41,27.52,27.52,0,0,1,78.13,60.15c.19.73.32,1.49.45,2.24.5,2.91.68,5.16-2.84,7C70.7,72,69,78.32,70.92,83.77A2.61,2.61,0,0,1,70,87.08,30.77,30.77,0,0,1,51,94.93Z"/><path class="cls-3" d="M5.87,50.17c.67-3.11,1.16-6.28,2.07-9.32,1-3.51,3.91-5,6.82-3.88s3.82,3.77,2.64,7.23a17.85,17.85,0,0,0,6.54,20.71,17.46,17.46,0,0,0,21.43-1,25.22,25.22,0,0,0,4.92-6.49c1.76-3.07,4.32-4.36,7.11-3s3.57,4.15,2.11,7.22C54.56,72.05,46.25,77.49,34.82,78.13a2.9,2.9,0,0,1-2.19-1.3c-3.36-6.27-9.32-8.82-16-6.53a2.19,2.19,0,0,1-2.74-.73A30.22,30.22,0,0,1,5.87,50.17Z"/><path class="cls-4" d="M95.62,49.88c-.72,3.18-1.26,6.42-2.21,9.52-1,3.34-3.91,4.71-6.75,3.62S82.88,59.26,84,56c3.39-10-1.6-20.24-11.41-23.3A17.88,17.88,0,0,0,51.25,42.1a8.35,8.35,0,0,1-2.44,3.18,4.55,4.55,0,0,1-5.73-.36,4.9,4.9,0,0,1-1.31-6.2A27.48,27.48,0,0,1,61,22.56c.59-.15,1.19-.27,1.79-.38,3.06-.59,5.46-.74,7.38,2.92,2.56,4.9,8.88,6.65,14.22,4.71,1.63-.59,2.47-.16,3.49,1A30.59,30.59,0,0,1,95.62,49.88Z"/><path class="cls-4" d="M70.86,17.91a9.5,9.5,0,1,1,9.56,9.57A9.51,9.51,0,0,1,70.86,17.91Z"/><path class="cls-5" d="M18.67,29.86a9.51,9.51,0,1,1,9.56-9.57A9.52,9.52,0,0,1,18.67,29.86Z"/><path class="cls-6" d="M82.73,70.14a9.51,9.51,0,1,1-9.5,9.64A9.51,9.51,0,0,1,82.73,70.14Z"/><path class="cls-3" d="M30.61,82.05A9.5,9.5,0,1,1,21,72.52,9.52,9.52,0,0,1,30.61,82.05Z"/></svg>